<svg viewBox="0 0 500 500" xmlns="http://www.w3.org/2000/svg" xmlns:xlink="http://www.w3.org/1999/xlink" width="100%" id="blobSvg">
  <defs>
    <linearGradient id="gradient" x1="0%" y1="0%" x2="0%" y2="100%">
      <stop offset="0%" style="stop-color: rgb(49, 183, 194);"></stop>
      <stop offset="100%" style="stop-color: rgb(52, 232, 158);"></stop>
    </linearGradient>
  </defs>
  <path id="blob" d="M483,285.5Q469,321,451,352Q433,383,409,409.5Q385,436,352.5,451Q320,466,285,482Q250,498,214.5,483.5Q179,469,147.5,452Q116,435,90.5,409.5Q65,384,45,353.5Q25,323,15,286.5Q5,250,16,213.5Q27,177,39,141Q51,105,79,79Q107,53,141.5,38.5Q176,24,213,24Q250,24,285,29.5Q320,35,356.5,44.5Q393,54,418,82Q443,110,463,142Q483,174,490,212Q497,250,483,285.5Z" fill="url(#gradient)"></path>
</svg>