<svg width="1920" height="1080" viewBox="0 0 1920 1080" xmlns="http://www.w3.org/2000/svg"><rect width="1920" height="1080" fill="#3d1053"/><path d="M1388,577.9999999999999C1383.3333333333333,661.2216809816516,1312.6650429449553,765.7509518938009,1246.1650429449553,805.1650429449553C1179.6650429449553,844.5791339961097,1074.8883476483184,818.4212927746624,989,814.4845463069264C903.1116523516815,810.5477998391904,791.0016237217113,824.6253218563598,730.8349570550447,781.5445641385388C670.6682903883781,738.4638064207178,634,637.9516011805823,628,556C622,474.0483988194176,637.1682903883781,328.2871865320513,694.8349570550447,289.8349570550447C752.5016237217113,251.38272757803807,877.4449856850148,322.6199564712937,973.9999999999999,325.2866231379603C1070.5550143149849,327.95328980462693,1205.1650429449553,263.71606091137136,1274.1650429449553,305.83495705504464C1343.1650429449553,347.9538531987179,1392.6666666666667,494.7783190183481,1388,577.9999999999999C1383.3333333333333,661.2216809816516,1312.6650429449553,765.7509518938009,1246.1650429449553,805.1650429449553" fill="#df6688"/></svg>